<svg viewBox="0 0 100 100"><g stroke="none" stroke-width="1" fill="none" fill-rule="evenodd" sketch:type="MSPage"><g sketch:type="MSArtboardGroup" fill="#000000"><path d="M20.0149254,75.8 L3,75.8 L3,27.7833333 L20.0149254,27.7833333 L20.0149254,7 L81.6940299,7 L81.6940299,27.7833333 L98,27.7833333 L98,75.8 L81.6940299,75.8 L81.6940299,93 L20.0149254,93 L20.0149254,75.8 L20.0149254,75.8 Z M27.2050011,13.1504975 L73.9960459,13.1504975 L73.9960459,27.4838308 L27.2050011,27.4838308 L27.2050011,13.1504975 L27.2050011,13.1504975 Z M10.7985075,35.6666667 L90.2014925,35.6666667 L90.2014925,67.9166667 L10.7985075,67.9166667 L10.7985075,35.6666667 L10.7985075,35.6666667 Z M27.2050011,71.2004975 L74.5039523,71.2004975 L74.5039523,87.5661692 L27.2050011,87.5661692 L27.2050011,71.2004975 L27.2050011,71.2004975 Z M29.9402985,75.0833333 L71.7686567,75.0833333 L71.7686567,77.95 L29.9402985,77.95 L29.9402985,75.0833333 L29.9402985,75.0833333 Z M29.9402985,80.8166667 L71.7686567,80.8166667 L71.7686567,83.6833333 L29.9402985,83.6833333 L29.9402985,80.8166667 L29.9402985,80.8166667 Z M74.6044776,56.45 C77.3452937,56.45 79.5671642,54.2039618 79.5671642,51.4333333 C79.5671642,48.6627048 77.3452937,46.4166667 74.6044776,46.4166667 C71.8636615,46.4166667 69.641791,48.6627048 69.641791,51.4333333 C69.641791,54.2039618 71.8636615,56.45 74.6044776,56.45 L74.6044776,56.45 Z"></path></g></g></svg>
